<svg width="799" height="186" viewBox="0 0 799 186" fill="none" xmlns="http://www.w3.org/2000/svg">
<path fill-rule="evenodd" clip-rule="evenodd" d="M118.802 0V27.6991H35.5285V75.8764H115.264V103.576H35.5285V155.692H120.659V183.391H0V0H118.802ZM333.126 28.2115H335.752V60.762H377.861V85.1788H335.752V141.762C335.752 147.27 337.417 151.737 340.747 155.147C344.078 158.558 348.641 160.271 354.437 160.271C361.978 160.271 370.672 157.549 380.487 152.137V177.995C368.815 183.151 357.863 185.744 347.6 185.744C333.735 185.744 322.927 181.982 315.162 174.457C307.396 166.931 303.522 156.732 303.522 143.875V85.1788H284.308V79.9272L333.126 28.2115V28.2115ZM453.898 58.4084C471.958 58.4084 486.256 64.1883 496.791 75.7323C507.31 87.2923 512.578 103.255 512.578 123.637V128.489H425.606C426.919 139.424 431.018 147.846 437.903 153.754C444.787 159.662 454.234 162.608 466.258 162.608C473.975 162.608 481.405 161.279 488.562 158.606C495.719 155.932 503.1 151.897 510.737 146.469V170.486C496.359 180.637 478.891 185.712 458.381 185.712C438.991 185.712 423.156 179.884 410.876 168.26C398.595 156.62 392.463 141.138 392.463 121.796C392.463 102.455 398.147 87.9328 409.499 76.1166C420.851 64.3004 435.661 58.3923 453.898 58.3923V58.4084ZM482.189 108.939C481.309 100.005 478.587 93.0403 474.04 87.9968C469.476 82.9693 463.2 80.4556 455.227 80.4556C447.253 80.4556 440.512 82.8572 435.549 87.6766C430.601 92.4959 427.463 99.5728 426.134 108.939H482.189ZM609.157 58.4084C622.318 58.4084 632.821 62.7153 640.667 71.3453C648.512 79.9753 652.435 91.3111 652.435 105.401V183.375H620.204V108.683C620.204 100.726 618.299 94.4172 614.473 89.774C610.662 85.1308 605.458 82.8252 598.878 82.8252C593.882 82.8252 589.191 84.2982 584.804 87.2283C580.417 90.1583 575.598 95.0417 570.33 101.862V183.375H537.972V60.778H570.33V77.9739C576.302 70.977 582.418 65.9656 588.679 62.9395C594.955 59.9294 601.776 58.4084 609.141 58.4084H609.157ZM766.77 63.5319V0H799V183.359H742.161C722.515 183.359 706.792 177.723 694.992 166.435C683.192 155.147 677.3 139.745 677.3 120.227C677.3 108.683 680.038 98.1798 685.53 88.7173C691.005 79.2708 698.563 71.8576 708.153 66.4619C717.76 61.0822 728.135 58.3923 739.263 58.3923C747.861 58.3923 757.019 60.1055 766.754 63.5159L766.77 63.5319ZM749.798 158.702C723.572 158.702 710.459 145.525 710.459 119.186C710.459 108.251 713.677 99.4127 720.13 92.672C726.582 85.9314 735.196 82.569 745.987 82.569C753.176 82.569 760.109 84.2822 766.77 87.6926V158.702H749.798ZM275.791 183.038L235.907 183.263C235.907 183.263 207.872 149.031 206.367 146.982C199.418 156.492 178.299 183.263 178.299 183.263H132.331L183.423 119.763L134.669 61.1943L174.296 60.9701L275.791 183.054V183.038Z" fill="white"/>
<path fill-rule="evenodd" clip-rule="evenodd" d="M213 87.5972L233.552 61L272 61.048L232.224 109.876L213 87.5972Z" fill="#00C9FF"/>
</svg>
